<?xml version="1.0" encoding="utf-8"?>
<svg version="1.1" id="Réteg_1" xmlns="http://www.w3.org/2000/svg" xmlns:xlink="http://www.w3.org/1999/xlink" x="0px" y="0px"
	 viewBox="0 0 425.2 425.2" style="enable-background:new 0 0 425.2 425.2;" xml:space="preserve">
<style type="text/css">
	.st0{fill:none;stroke:#4F9A88;stroke-width:12;stroke-miterlimit:10;}
	.st1{fill:none;stroke:#92AAD8;stroke-width:10;stroke-miterlimit:10;}
	.st2{fill:#2E368F;}
</style>
<polygon class="st0" points="349.2,311.3 349.2,77 114.9,77 114.9,39.3 39.5,39.3 39.5,114.7 77.2,114.7 77.2,349 311.5,349 
	311.5,386.7 386.9,386.7 386.9,311.3 "/>
<rect x="56.5" y="57" class="st1" width="40.5" height="40.5"/>
<g>
	<g>
		<path class="st2" d="M219.6,256.2l-10.9,9c-1.3-1.3-5.8-6.4-13.6-15.2c-7.8-8.8-19.8-22.5-36.1-41.1l0.1-0.8
			c2.2-0.6,5.2-1.9,8.8-3.8c3.7-2,6.8-4.1,9.3-6.3c2.2-2,4-4.4,5.6-7.3s2.4-6.8,2.4-11.7c0-4.5-1.2-8.4-3.5-11.6
			c-2.4-3.2-5.6-5.6-9.7-7.1c-3.4-1.3-6.9-2.1-10.7-2.3c-3.7-0.3-7.2-0.4-10.3-0.4c-2.1,0-3.7,0-4.8,0c-1.1,0-1.9,0-2.4,0
			c-0.1,11.1-0.2,20.8-0.2,29.3s0,14.4,0,17.9c0,8,0,18.8,0.1,32.5s0.2,22.3,0.2,25.8h-14.4c0.1-3.5,0.1-10.3,0.3-20.3
			c0.1-10.1,0.2-22.6,0.2-37.5c0-2.9,0-8.3,0-16.2s-0.1-22.2-0.4-43c0.6,0,3.5-0.1,8.7-0.2s10.1-0.2,14.5-0.2c5.1,0,10,0.3,14.8,0.9
			s9.4,1.8,14,3.8c5.8,2.4,10.3,6,13.7,10.8c3.4,4.7,5.1,10.3,5.1,16.7c0,8.3-2.5,15.2-7.6,20.7s-9.9,9.6-14.4,12.3v0.4
			c8,9.3,16.7,19,26.3,28.9C213.8,250.1,218.9,255.4,219.6,256.2z"/>
		<path class="st2" d="M313.6,228.8c0,5.8-1.5,11.1-4.5,15.7c-3,4.7-7.3,8.5-13.1,11.4c-5.1,2.6-10.6,4.5-16.7,5.7s-13,1.8-20.8,1.8
			c-5.8,0-11.7-0.1-17.8-0.3c-6.1-0.2-9.5-0.3-10.2-0.4c0.2-11.2,0.3-21.7,0.3-31.7c0.1-9.9,0.1-19.4,0.1-28.4
			c0-17.1-0.1-30.7-0.2-40.7s-0.2-15.2-0.2-15.6c0.8-0.1,4-0.2,9.6-0.4c5.6-0.2,11.1-0.3,16.4-0.3c6,0,11.5,0.4,16.6,1.2
			c5.1,0.8,9.3,1.9,12.8,3.3c5.3,2.1,9.5,5.1,12.5,9c3,3.9,4.5,8.8,4.5,14.5c0,6-1.9,11.3-5.7,16c-3.8,4.6-8.1,7.8-13,9.5v0.9
			c4,0.3,7.9,1.3,11.7,2.8c3.8,1.5,7.1,3.7,9.9,6.6c2.5,2.5,4.4,5.3,5.7,8.3C312.9,220.6,313.6,224.3,313.6,228.8z M298.7,229.2
			c0-3-0.5-5.6-1.6-8c-1-2.4-2.6-4.6-4.7-6.8c-2-2-4.7-3.6-8.2-4.8c-3.5-1.2-7.2-1.8-11.3-1.8c-3.3,0-5.9,0-7.9,0.1s-3.3,0.1-4,0.1
			l-1.4-10.5c4.3-0.1,8.1-0.6,11.4-1.5s6.2-2.3,8.8-4.1c2.4-1.7,4.5-4,6-6.7c1.6-2.7,2.4-5.8,2.4-9.1c0-3.6-0.9-6.6-2.6-9.2
			s-4.1-4.6-7.2-6.2c-2.6-1.2-5.7-2.1-9.4-2.8c-3.7-0.6-7.7-0.9-11.9-0.9c-2.7,0-5.2,0-7.5,0.1s-3.8,0.1-4.4,0.1
			c-0.2,8.5-0.3,17.5-0.3,27.1s0,16.5,0,20.8c0,10,0,20.1,0.1,30.2s0.1,15.5,0.1,16.2c1.2,0.1,2.7,0.1,4.7,0.2
			c1.9,0.1,3.8,0.1,5.6,0.1c6.7,0,12.9-0.3,18.6-1s10.6-2.2,14.5-4.4c3.3-1.8,5.8-4.2,7.5-7.1C297.8,236.5,298.7,233.1,298.7,229.2z
			"/>
	</g>
</g>
</svg>
